<?xml version="1.0" encoding="UTF-8" standalone="no"?>
<!DOCTYPE svg PUBLIC "-//W3C//DTD SVG 1.1//EN"
 "http://www.w3.org/Graphics/SVG/1.1/DTD/svg11.dtd">
<!-- Generated by graphviz version 2.40.1 (20161225.0304)
 -->
<!-- Title: flow Pages: 1 -->
<svg width="148pt" height="269pt"
 viewBox="0.00 0.00 147.66 268.82" xmlns="http://www.w3.org/2000/svg" xmlns:xlink="http://www.w3.org/1999/xlink">
<g id="graph0" class="graph" transform="scale(1 1) rotate(0) translate(4 264.82)">
<title>flow</title>
<polygon fill="#ffffff" stroke="transparent" points="-4,4 -4,-264.82 143.6621,-264.82 143.6621,4 -4,4"/>
<!-- A -->
<g id="node1" class="node">
<title>A</title>
<polygon fill="none" stroke="#000000" points="93,-260.82 39,-260.82 39,-224.82 93,-224.82 93,-260.82"/>
<text text-anchor="middle" x="66" y="-238.62" font-family="Times,serif" font-size="14.00" fill="#000000">A</text>
</g>
<!-- B1_1 -->
<g id="node2" class="node">
<title>B1_1</title>
<polygon fill="none" stroke="#000000" points="66,-188.82 12,-188.82 12,-152.82 66,-152.82 66,-188.82"/>
<text text-anchor="middle" x="39" y="-166.62" font-family="Times,serif" font-size="14.00" fill="#000000">B1_1</text>
</g>
<!-- A&#45;&gt;B1_1 -->
<g id="edge1" class="edge">
<title>A&#45;&gt;B1_1</title>
<path fill="none" stroke="#000000" d="M59.1868,-224.6514C56.2356,-216.7818 52.7142,-207.3912 49.445,-198.6733"/>
<polygon fill="#000000" stroke="#000000" points="52.6934,-197.3676 45.905,-189.2333 46.1391,-199.8256 52.6934,-197.3676"/>
</g>
<!-- B2 -->
<g id="node4" class="node">
<title>B2</title>
<polygon fill="none" stroke="#000000" points="139.825,-116.7304 72.175,-116.7304 72.175,-72.0896 139.825,-72.0896 139.825,-116.7304"/>
<text text-anchor="middle" x="106" y="-101.62" font-family="Times,serif" font-size="14.00" fill="#000000">B2</text>
<text text-anchor="middle" x="106" y="-87.62" font-family="Times,serif" font-size="14.00" fill="#000000">(10分散)</text>
</g>
<!-- A&#45;&gt;B2 -->
<g id="edge3" class="edge">
<title>A&#45;&gt;B2</title>
<path fill="none" stroke="#000000" d="M70.9048,-224.6221C77.4549,-200.3194 89.1696,-156.8551 97.2512,-126.8702"/>
<polygon fill="#000000" stroke="#000000" points="100.7208,-127.4461 99.9439,-116.8798 93.962,-125.6244 100.7208,-127.4461"/>
</g>
<!-- B1_2 -->
<g id="node3" class="node">
<title>B1_2</title>
<polygon fill="none" stroke="#000000" points="54,-112.41 0,-112.41 0,-76.41 54,-76.41 54,-112.41"/>
<text text-anchor="middle" x="27" y="-90.21" font-family="Times,serif" font-size="14.00" fill="#000000">B1_2</text>
</g>
<!-- B1_1&#45;&gt;B1_2 -->
<g id="edge2" class="edge">
<title>B1_1&#45;&gt;B1_2</title>
<path fill="none" stroke="#000000" d="M36.1562,-152.7119C34.7467,-143.7373 33.0125,-132.6944 31.4337,-122.6419"/>
<polygon fill="#000000" stroke="#000000" points="34.8742,-121.9888 29.865,-112.6529 27.9589,-123.0749 34.8742,-121.9888"/>
</g>
<!-- C -->
<g id="node5" class="node">
<title>C</title>
<polygon fill="none" stroke="#000000" points="93,-36 39,-36 39,0 93,0 93,-36"/>
<text text-anchor="middle" x="66" y="-13.8" font-family="Times,serif" font-size="14.00" fill="#000000">C</text>
</g>
<!-- B1_2&#45;&gt;C -->
<g id="edge4" class="edge">
<title>B1_2&#45;&gt;C</title>
<path fill="none" stroke="#000000" d="M36.2425,-76.3019C40.9678,-67.0439 46.8165,-55.5848 52.0748,-45.2826"/>
<polygon fill="#000000" stroke="#000000" points="55.26,-46.741 56.6887,-36.2429 49.0251,-43.5587 55.26,-46.741"/>
</g>
<!-- B2&#45;&gt;C -->
<g id="edge5" class="edge">
<title>B2&#45;&gt;C</title>
<path fill="none" stroke="#000000" d="M94.215,-71.8978C89.8826,-63.6217 84.9276,-54.1565 80.3915,-45.4913"/>
<polygon fill="#000000" stroke="#000000" points="83.4216,-43.7329 75.6829,-36.4967 77.22,-46.9795 83.4216,-43.7329"/>
</g>
</g>
</svg>
